<svg xmlns="http://www.w3.org/2000/svg" xmlns:xlink="http://www.w3.org/1999/xlink" width="24" height="24" viewBox="0 0 24 24">
    <defs>
        <path id="a" d="M23.455 6.648c.363.83.545 1.474.545 1.934 0 .69-.182 1.322-.545 1.895-.364.572-.858.99-1.481 1.25v8.906c0 .364-.123.683-.37.957-.247.273-.54.41-.877.41H15a1 1 0 0 1-1-1v-5h-4v5a1 1 0 0 1-1 1H3.273c-.338 0-.63-.137-.877-.41a1.384 1.384 0 0 1-.37-.957v-8.906a3.156 3.156 0 0 1-1.48-1.25A3.464 3.464 0 0 1 0 8.582c0-.69.182-1.335.545-1.934l2.533-4.062c.104-.182.253-.326.448-.43.195-.104.396-.156.604-.156h15.74c.208 0 .41.052.604.156.195.104.344.248.448.43l2.533 4.062zM20.104 20v-8.04a3.714 3.714 0 0 1-2.338-1.25c-.363.392-.798.704-1.305.938a3.76 3.76 0 0 1-1.597.352 3.632 3.632 0 0 1-1.578-.352A4.2 4.2 0 0 1 12 10.711a4.2 4.2 0 0 1-1.286.937A3.676 3.676 0 0 1 9.117 12a3.676 3.676 0 0 1-1.598-.352 4.2 4.2 0 0 1-1.285-.937 3.714 3.714 0 0 1-2.338 1.25V20h4.22v-4.5a1 1 0 0 1 1-1h5.767a1 1 0 0 1 1 1V20h4.22zm1.87-10.695c.104-.235.156-.502.156-.801 0-.3-.091-.593-.273-.879l-2.338-3.75H4.481l-2.338 3.75a1.44 1.44 0 0 0-.273.84c0 .3.052.58.156.84.234.468.584.742 1.052.82h.273c.597 0 1.104-.221 1.52-.664l1.363-1.563 1.402 1.563c.39.443.883.664 1.48.664.598 0 1.092-.221 1.481-.664L12 7.898l1.403 1.563c.39.443.883.664 1.48.664.598 0 1.091-.221 1.48-.664l1.403-1.563 1.364 1.563c.415.443.922.664 1.52.664h.272c.468-.078.818-.352 1.052-.82z"/>
    </defs>
    <g fill="none" fill-rule="evenodd">
        <path d="M0 0h24v24H0z"/>
        <mask id="b" fill="#fff">
            <use xlink:href="#a"/>
        </mask>
        <use fill="#636466" xlink:href="#a"/>
        <g fill="#df2a11" mask="url(#b)">
            <path d="M0 0h24v24H0z"/>
        </g>
    </g>
</svg>
