<svg xmlns="http://www.w3.org/2000/svg" xmlns:xlink="http://www.w3.org/1999/xlink" width="24" height="24" viewBox="0 0 24 24">
    <defs>
        <path id="a" d="M12 0c2.161 0 4.161.54 6 1.621A12.126 12.126 0 0 1 22.379 6C23.459 7.839 24 9.839 24 12s-.54 4.161-1.621 6A12.126 12.126 0 0 1 18 22.379C16.161 23.459 14.161 24 12 24s-4.161-.54-6-1.621A12.126 12.126 0 0 1 1.621 18C.541 16.161 0 14.161 0 12s.54-4.161 1.621-6A12.126 12.126 0 0 1 6 1.621C7.839.541 9.839 0 12 0zm0 21.677a9.39 9.39 0 0 0 4.839-1.306 9.759 9.759 0 0 0 3.532-3.532A9.39 9.39 0 0 0 21.677 12a9.39 9.39 0 0 0-1.306-4.839 9.759 9.759 0 0 0-3.532-3.532A9.39 9.39 0 0 0 12 2.323a9.39 9.39 0 0 0-4.839 1.306A9.759 9.759 0 0 0 3.63 7.161 9.39 9.39 0 0 0 2.323 12a9.39 9.39 0 0 0 1.306 4.839 9.759 9.759 0 0 0 3.532 3.532A9.39 9.39 0 0 0 12 21.677zm-1.113-8.032a.596.596 0 0 1-.242-.484V5.226a.56.56 0 0 1 .17-.411.56.56 0 0 1 .41-.17h1.55a.56.56 0 0 1 .41.17.56.56 0 0 1 .17.41v6.872l3.242 2.322a.53.53 0 0 1 .218.387.602.602 0 0 1-.121.436l-.871 1.258a.62.62 0 0 1-.388.242.524.524 0 0 1-.435-.097l-4.113-3z"/>
    </defs>
    <g fill="none" fill-rule="evenodd">
        <path d="M0 0h24v24H0z"/>
        <mask id="b" fill="#fff">
            <use xlink:href="#a"/>
        </mask>
        <use fill="#636466" xlink:href="#a"/>
        <g fill="#df2a11" mask="url(#b)">
            <path d="M0 0h24v24H0z"/>
        </g>
    </g>
</svg>
