<svg xmlns="http://www.w3.org/2000/svg" xmlns:xlink="http://www.w3.org/1999/xlink" width="24" height="24" viewBox="0 0 24 24">
    <defs>
        <path id="a" d="M6.162 7.356l1.772 13.505c.137.059.306.124.507.191.837.28 1.856.449 3.06.449 1.557 0 2.745-.214 3.563-.614l1.775-13.53C15.06 7.785 13.28 8 11.5 8c-1.78 0-3.56-.215-5.338-.645zm-.868-2.31A21 21 0 0 0 11.5 6a21 21 0 0 0 6.206-.956 1 1 0 0 1 1.288 1.07l-2 15.5a1 1 0 0 1-.439.718c-1.19.794-2.875 1.168-5.055 1.168-1.421 0-2.653-.205-3.691-.551-.65-.217-1.104-.444-1.363-.617a1 1 0 0 1-.44-.719l-2-15.5a1 1 0 0 1 1.288-1.069zm8.741-.212c-.845.112-1.69.168-2.534.168h-.021L14.652.47a1 1 0 1 1 1.696 1.06l-2.313 3.304z"/>
    </defs>
    <g fill="none" fill-rule="evenodd">
        <path d="M0 0h24v24H0z"/>
        <mask id="b" fill="#fff">
            <use xlink:href="#a"/>
        </mask>
        <use fill="#F26A57" fill-rule="nonzero" xlink:href="#a"/>
        <g fill="#df2a11" mask="url(#b)">
            <path d="M0 0h24v24H0z"/>
        </g>
    </g>
</svg>
