<svg xmlns="http://www.w3.org/2000/svg" xmlns:xlink="http://www.w3.org/1999/xlink" width="6040" height="2555" viewBox="0 0 6040 2555">
    <defs>
        <path id="a" d="M0 1278h6040V0H0z"/>
        <path id="c" d="M0 1278h6040V0H0z"/>
    </defs>
    <g fill="none" fill-rule="evenodd">
        <g>
            <mask id="b" fill="#fff">
                <use xlink:href="#a"/>
            </mask>
            <use fill="#B6D670" xlink:href="#a"/>
            <path stroke="#FFF" stroke-width="48" d="M-1380 1328.8L41.8-93M2396 1328.8L3817.8-93M507 1328.8L1928.8-93M4283 1328.8L5704.8-93M-1255 1328.8L166.8-93M2521 1328.8L3942.8-93M633 1328.8L2054.8-93M4409 1328.8L5830.8-93M-1129 1328.8L292.8-93M2647 1328.8L4068.8-93M758 1328.8L2179.8-93M4534 1328.8L5955.8-93M-1004 1328.8L417.8-93M2772 1328.8L4193.8-93M883 1328.8L2304.8-93M4659 1328.8L6080.8-93M-878 1328.8L543.8-93M2898 1328.8L4319.8-93M1009 1328.8L2430.8-93M4785 1328.8L6206.8-93M-753 1328.8L668.8-93M3023 1328.8L4444.8-93M1134 1328.8L2555.8-93M4910 1328.8L6331.8-93M-627 1328.8L794.8-93M3149 1328.8L4570.8-93M1260 1328.8L2681.8-93M5036 1328.8L6457.8-93M-502 1328.8L919.8-93M3274 1328.8L4695.8-93M1385 1328.8L2806.8-93M5161 1328.8L6582.8-93M-376 1328.8L1045.8-93M3400 1328.8L4821.8-93M1511 1328.8L2932.8-93M5287 1328.8L6708.8-93M-251 1328.8L1170.8-93M3525 1328.8L4946.8-93M1636 1328.8L3057.8-93M5412 1328.8L6833.8-93M-125 1328.8L1296.8-93M3651 1328.8L5072.8-93M1762 1328.8L3183.8-93M5538 1328.8L6959.8-93M0 1328.8L1421.8-93M3776 1328.8L5197.8-93M1887 1328.8L3308.8-93M5663 1328.8L7084.8-93M126 1328.8L1547.8-93M3902 1328.8L5323.8-93M2013 1328.8L3434.8-93M5789 1328.8L7210.8-93M251 1328.8L1672.801-93M4027 1328.8L5448.801-93M2138 1328.8L3559.801-93M5914 1328.8L7335.801-93M377 1328.8L1798.8-93M4153 1328.8L5574.8-93M2264 1328.8L3685.8-93" mask="url(#b)" opacity=".3"/>
        </g>
        <g transform="translate(0 1277)">
            <mask id="d" fill="#fff">
                <use xlink:href="#c"/>
            </mask>
            <use fill="#B6D670" xlink:href="#c"/>
            <path stroke="#FFF" stroke-width="48" d="M-1401 1328.8L20.8-93M2375 1328.8L3796.8-93M486 1328.8L1907.8-93M4262 1328.8L5683.8-93M-1276 1328.8L145.8-93M2500 1328.8L3921.8-93M612 1328.8L2033.8-93M4388 1328.8L5809.8-93M-1150 1328.8L271.8-93M2626 1328.8L4047.8-93M737 1328.8L2158.8-93M4513 1328.8L5934.8-93M-1025 1328.8L396.8-93M2751 1328.8L4172.8-93M862 1328.8L2283.8-93M4638 1328.8L6059.8-93M-899 1328.8L522.8-93M2877 1328.8L4298.8-93M988 1328.8L2409.8-93M4764 1328.8L6185.8-93M-774 1328.8L647.8-93M3002 1328.8L4423.8-93M1113 1328.8L2534.8-93M4889 1328.8L6310.8-93M-648 1328.8L773.8-93M3128 1328.8L4549.8-93M1239 1328.8L2660.8-93M5015 1328.8L6436.8-93M-523 1328.8L898.8-93M3253 1328.8L4674.8-93M1364 1328.8L2785.8-93M5140 1328.8L6561.8-93M-397 1328.8L1024.8-93M3379 1328.8L4800.8-93M1490 1328.8L2911.8-93M5266 1328.8L6687.8-93M-272 1328.8L1149.8-93M3504 1328.8L4925.8-93M1615 1328.8L3036.8-93M5391 1328.8L6812.8-93M-146 1328.8L1275.8-93M3630 1328.8L5051.8-93M1741 1328.8L3162.8-93M5517 1328.8L6938.8-93M-21 1328.8L1400.8-93M3755 1328.8L5176.8-93M1866 1328.8L3287.8-93M5642 1328.8L7063.8-93M105 1328.8L1526.8-93M3881 1328.8L5302.8-93M1992 1328.8L3413.8-93M5768 1328.8L7189.8-93M230 1328.8L1651.801-93M4006 1328.8L5427.801-93M2117 1328.8L3538.801-93M5893 1328.8L7314.801-93M356 1328.8L1777.8-93M4132 1328.8L5553.8-93M2243 1328.8L3664.8-93M6019 1328.8L7440.8-93" mask="url(#d)" opacity=".3"/>
        </g>
    </g>
</svg>
